<svg width="48" height="48" viewBox="0 0 48 48" fill="none" xmlns="http://www.w3.org/2000/svg">
<path fill-rule="evenodd" clip-rule="evenodd" d="M33.414 6.58606C33.7889 6.96112 33.9996 7.46973 33.9996 8.00006C33.9996 8.53039 33.7889 9.03901 33.414 9.41406L18.828 24.0001L33.414 38.5861C33.7783 38.9633 33.9799 39.4685 33.9753 39.9929C33.9708 40.5173 33.7605 41.0189 33.3896 41.3897C33.0188 41.7605 32.5172 41.9709 31.9928 41.9754C31.4684 41.98 30.9632 41.7784 30.586 41.4141L14.586 25.4141C14.2111 25.039 14.0004 24.5304 14.0004 24.0001C14.0004 23.4697 14.2111 22.9611 14.586 22.5861L30.586 6.58606C30.9611 6.21112 31.4697 6.00049 32 6.00049C32.5303 6.00049 33.0389 6.21112 33.414 6.58606Z" fill="#AAAAAA"/>
</svg>
