<svg width="23" height="23" viewBox="0 0 23 23" fill="none" xmlns="http://www.w3.org/2000/svg">
<g clip-path="url(#clip0_1999_5542)">
<path d="M11.5 5.22727C13.1636 5.22727 14.7591 5.88815 15.9355 7.06451C17.1119 8.24088 17.7727 9.83637 17.7727 11.5C17.7727 13.8209 16.5077 15.8491 14.6364 16.9364V18.8182C14.6364 19.0955 14.5262 19.3614 14.3302 19.5574C14.1341 19.7535 13.8682 19.8636 13.5909 19.8636H9.40909C9.13182 19.8636 8.8659 19.7535 8.66984 19.5574C8.47378 19.3614 8.36364 19.0955 8.36364 18.8182V16.9364C6.49227 15.8491 5.22727 13.8209 5.22727 11.5C5.22727 9.83637 5.88815 8.24088 7.06451 7.06451C8.24088 5.88815 9.83637 5.22727 11.5 5.22727ZM13.5909 20.9091V21.9545C13.5909 22.2318 13.4808 22.4977 13.2847 22.6938C13.0886 22.8899 12.8227 23 12.5455 23H10.4545C10.1773 23 9.91136 22.8899 9.7153 22.6938C9.51924 22.4977 9.40909 22.2318 9.40909 21.9545V20.9091H13.5909ZM19.8636 10.4545H23V12.5455H19.8636V10.4545ZM0 10.4545H3.13636V12.5455H0V10.4545ZM12.5455 0V3.13636H10.4545V0H12.5455ZM4.09818 2.61364L6.325 4.85091L4.84045 6.325L2.61364 4.10864L4.09818 2.61364ZM16.675 4.84045L18.8914 2.61364L20.3864 4.10864L18.1595 6.325L16.675 4.84045Z" fill="#FF8EA8"/>
</g>
<defs>
<clipPath id="clip0_1999_5542">
<rect width="23" height="23" fill="white"/>
</clipPath>
</defs>
</svg>
