<svg width="48" height="48" viewBox="0 0 48 48" fill="none" xmlns="http://www.w3.org/2000/svg">
<path fill-rule="evenodd" clip-rule="evenodd" d="M14.5859 6.58606C14.211 6.96112 14.0004 7.46973 14.0004 8.00006C14.0004 8.53039 14.211 9.03901 14.5859 9.41406L29.1719 24.0001L14.5859 38.5861C14.2216 38.9633 14.02 39.4685 14.0246 39.9929C14.0291 40.5173 14.2395 41.0189 14.6103 41.3897C14.9811 41.7605 15.4827 41.9709 16.0071 41.9754C16.5315 41.98 17.0367 41.7784 17.4139 41.4141L33.4139 25.4141C33.7889 25.039 33.9995 24.5304 33.9995 24.0001C33.9995 23.4697 33.7889 22.9611 33.4139 22.5861L17.4139 6.58606C17.0389 6.21112 16.5303 6.00049 15.9999 6.00049C15.4696 6.00049 14.961 6.21112 14.5859 6.58606Z" fill="#AAAAAA"/>
</svg>
