<svg width="28" height="30" viewBox="0 0 28 30" fill="none" xmlns="http://www.w3.org/2000/svg">
<path d="M23 30C21.75 30 20.6875 29.5625 19.8125 28.6875C18.9375 27.8125 18.5 26.75 18.5 25.5C18.5 25.35 18.5375 25 18.6125 24.45L8.075 18.3C7.675 18.675 7.2125 18.969 6.6875 19.182C6.1625 19.395 5.6 19.501 5 19.5C3.75 19.5 2.6875 19.0625 1.8125 18.1875C0.9375 17.3125 0.5 16.25 0.5 15C0.5 13.75 0.9375 12.6875 1.8125 11.8125C2.6875 10.9375 3.75 10.5 5 10.5C5.6 10.5 6.1625 10.6065 6.6875 10.8195C7.2125 11.0325 7.675 11.326 8.075 11.7L18.6125 5.55C18.5625 5.375 18.5315 5.2065 18.5195 5.0445C18.5075 4.8825 18.501 4.701 18.5 4.5C18.5 3.25 18.9375 2.1875 19.8125 1.3125C20.6875 0.4375 21.75 0 23 0C24.25 0 25.3125 0.4375 26.1875 1.3125C27.0625 2.1875 27.5 3.25 27.5 4.5C27.5 5.75 27.0625 6.8125 26.1875 7.6875C25.3125 8.5625 24.25 9 23 9C22.4 9 21.8375 8.8935 21.3125 8.6805C20.7875 8.4675 20.325 8.174 19.925 7.8L9.3875 13.95C9.4375 14.125 9.469 14.294 9.482 14.457C9.495 14.62 9.501 14.801 9.5 15C9.499 15.199 9.493 15.3805 9.482 15.5445C9.471 15.7085 9.4395 15.877 9.3875 16.05L19.925 22.2C20.325 21.825 20.7875 21.5315 21.3125 21.3195C21.8375 21.1075 22.4 21.001 23 21C24.25 21 25.3125 21.4375 26.1875 22.3125C27.0625 23.1875 27.5 24.25 27.5 25.5C27.5 26.75 27.0625 27.8125 26.1875 28.6875C25.3125 29.5625 24.25 30 23 30Z" fill="white"/>
</svg>
