<svg width="33" height="33" viewBox="0 0 33 33" fill="none" xmlns="http://www.w3.org/2000/svg">
<g clip-path="url(#clip0_1402_15)">
<path d="M0 16.22C0 25.18 7.26 32.44 16.22 32.44C25.18 32.44 32.44 25.18 32.44 16.22C32.44 7.26 25.17 0 16.22 0C7.27 0 0 7.26 0 16.22Z" fill="white"/>
<path d="M24.46 16.2202C24.46 20.3502 21.42 23.7702 17.46 24.3702C17.46 22.5002 17.46 20.6302 17.46 18.7602L17.61 18.6002C18.2 18.6002 18.79 18.6002 19.37 18.6002L19.55 18.4402C19.57 18.2102 19.61 17.9902 19.63 17.7602C19.69 17.2802 19.76 16.8002 19.82 16.3202C19.84 16.1502 19.83 16.1502 19.66 16.1502H17.45C17.45 15.8702 17.45 15.6202 17.45 15.3602C17.45 14.9902 17.45 14.6302 17.48 14.2702C17.5 13.9802 17.64 13.7302 17.93 13.6102C18.07 13.5502 18.22 13.5102 18.36 13.5102C18.82 13.4902 19.29 13.4902 19.75 13.4902L19.92 13.3302C19.92 12.7002 19.92 12.0702 19.92 11.4402L19.77 11.2802C19.15 11.2602 18.54 11.2202 17.92 11.2102C17.51 11.2002 17.11 11.2802 16.73 11.4302C15.62 11.8802 15.08 12.7502 14.97 13.8902C14.91 14.5802 14.94 15.2802 14.94 15.9702C14.94 16.0902 14.91 16.1402 14.78 16.1402C14.19 16.1402 13.6 16.1402 13.02 16.1402L12.87 16.3002C12.87 17.0102 12.87 17.7202 12.87 18.4302L13.03 18.5902C13.6 18.5902 14.18 18.5902 14.75 18.5902C14.94 18.5902 14.94 18.5902 14.94 18.7802C14.94 20.6402 14.94 22.5002 14.94 24.3502C11 23.7402 7.97998 20.3202 7.97998 16.2102C7.97998 11.6602 11.67 7.97021 16.22 7.97021C20.77 7.97021 24.46 11.6602 24.46 16.2102" fill="#231815"/>
<path d="M19.93 13.3401L19.76 13.5001C19.3 13.5001 18.83 13.5001 18.37 13.5201C18.22 13.5201 18.07 13.5701 17.94 13.6201C17.65 13.7401 17.52 13.9801 17.49 14.2801C17.46 14.6401 17.46 15.0101 17.46 15.3701C17.46 15.6301 17.46 15.8801 17.46 16.1601H17.63C18.31 16.1601 18.99 16.1601 19.66 16.1601C19.83 16.1601 19.84 16.1601 19.82 16.3401C19.76 16.8201 19.7 17.3001 19.63 17.7801C19.6 18.0001 19.57 18.2301 19.55 18.4601L19.37 18.6201C18.78 18.6201 18.19 18.6201 17.61 18.6201L17.46 18.7801C17.46 20.6501 17.46 22.5201 17.46 24.3901C17.06 24.4501 16.64 24.4801 16.22 24.4801C15.8 24.4801 15.36 24.4501 14.94 24.3801C14.94 22.5201 14.94 20.6601 14.94 18.8101C14.94 18.6834 14.8767 18.6201 14.75 18.6201C14.18 18.6201 13.6 18.6201 13.03 18.6201L12.87 18.4601C12.87 17.7501 12.87 17.0401 12.87 16.3301L13.02 16.1701C13.61 16.1701 14.2 16.1701 14.78 16.1701C14.92 16.1701 14.94 16.1301 14.94 16.0001C14.94 15.3101 14.91 14.6101 14.97 13.9201C15.07 12.7701 15.62 11.9001 16.73 11.4601C17.11 11.3101 17.51 11.2301 17.92 11.2401C18.54 11.2501 19.15 11.2901 19.77 11.3101L19.92 11.4701C19.92 12.1001 19.92 12.7301 19.92 13.3601" fill="white"/>
</g>
<defs>
<clipPath id="clip0_1402_15">
<rect width="32.43" height="32.43" fill="white"/>
</clipPath>
</defs>
</svg>
