<svg width="33" height="33" viewBox="0 0 33 33" fill="none" xmlns="http://www.w3.org/2000/svg">
<g clip-path="url(#clip0_1402_5)">
<path d="M32.48 16.24C32.48 25.21 25.21 32.48 16.24 32.48C7.27 32.48 0 25.21 0 16.24C0 7.27 7.27 0 16.24 0C25.21 0 32.48 7.27 32.48 16.24Z" fill="white"/>
<path d="M24.91 16.2402C24.91 22.6202 24.53 22.0802 16.24 22.3202C8.06001 22.1502 7.57001 22.6202 7.57001 16.2402C7.57001 9.86016 8.08001 10.3102 16.24 10.1602C24.13 10.2602 24.91 9.72016 24.91 16.2402Z" fill="#231815"/>
<path d="M18.98 16.2399L14.52 18.8599V13.6099L18.98 16.2399Z" fill="white"/>
</g>
<defs>
<clipPath id="clip0_1402_5">
<rect width="32.48" height="32.48" fill="white"/>
</clipPath>
</defs>
</svg>
