<svg width="33" height="33" viewBox="0 0 33 33" fill="none" xmlns="http://www.w3.org/2000/svg">
<g clip-path="url(#clip0_1402_19)">
<path d="M0 16.22C0 25.18 7.26 32.44 16.22 32.44C25.18 32.44 32.44 25.18 32.44 16.22C32.44 7.26 25.17 0 16.22 0C7.27 0 0 7.26 0 16.22Z" fill="white"/>
<path d="M24.48 19.1601C24.48 20.6101 23.31 21.7801 21.87 21.7801H10.56C9.12001 21.7801 7.95001 20.6101 7.95001 19.1601V12.9501C7.95001 11.5001 9.12001 10.3301 10.56 10.3301H21.87C23.31 10.3301 24.48 11.5001 24.48 12.9501V19.1601Z" fill="#231815"/>
<path d="M18.25 21.3299L16.57 21.2299V21.1899L16.22 21.2099L15.86 21.1899V21.2399L14.18 21.3399L15.78 23.9499L15.82 24.0099C15.9 24.1399 16.04 24.2299 16.21 24.2299C16.38 24.2299 16.52 24.1399 16.6 24.0099L16.64 23.9399L18.24 21.3299H18.25Z" fill="#231815"/>
<path d="M11.4 17.1002C11.04 17.1002 10.75 16.8102 10.75 16.4502C10.75 16.0902 11.04 15.8002 11.4 15.8002C11.76 15.8002 12.05 16.0902 12.05 16.4502C12.05 16.8102 11.76 17.1002 11.4 17.1002ZM11.62 14.8802C11.62 14.8802 11.17 14.8802 10.76 15.2802V13.6802H9.75V17.9002H10.77V17.5702C10.77 17.5702 11.01 18.0102 11.62 18.0102C11.62 18.0102 13.05 17.9602 13.05 16.4402C13.05 16.4402 13 14.9002 11.62 14.9002" fill="white"/>
<path d="M13.38 13.5801V14.5601C13.38 14.5601 13.84 14.5401 13.84 15.4001V17.9001H14.82V15.1701C14.82 15.1701 14.86 13.5901 13.38 13.5901" fill="white"/>
<path d="M17.2 17.1001C16.84 17.1001 16.55 16.8101 16.55 16.4501C16.55 16.0901 16.84 15.8001 17.2 15.8001C17.56 15.8001 17.85 16.0901 17.85 16.4501C17.85 16.8101 17.56 17.1001 17.2 17.1001ZM17.2 14.8901C17.2 14.8901 15.53 14.8901 15.53 16.4501C15.53 16.4501 15.48 17.9901 17.2 17.9901C17.2 17.9901 18.91 17.9901 18.91 16.4501C18.91 16.4501 18.97 14.8901 17.2 14.8901Z" fill="white"/>
<path d="M21.09 17.1002C20.73 17.1002 20.44 16.8102 20.44 16.4502C20.44 16.0902 20.73 15.8002 21.09 15.8002C21.45 15.8002 21.74 16.0902 21.74 16.4502C21.74 16.8102 21.45 17.1002 21.09 17.1002ZM21.7 14.9902V15.2702C21.7 15.2702 21.41 14.8802 20.85 14.8802C20.85 14.8802 19.42 14.8202 19.42 16.4302C19.42 16.4302 19.4 17.9302 20.81 17.9302C20.81 17.9302 21.38 17.9502 21.7 17.5402V17.7802C21.7 17.7802 21.77 18.5202 21.05 18.5202H20.81V19.4202H21.2C21.2 19.4202 22.68 19.4402 22.68 17.8402V14.9802H21.7V14.9902Z" fill="white"/>
</g>
<defs>
<clipPath id="clip0_1402_19">
<rect width="32.43" height="32.43" fill="white"/>
</clipPath>
</defs>
</svg>
