<svg width="33" height="33" viewBox="0 0 33 33" fill="none" xmlns="http://www.w3.org/2000/svg">
<g clip-path="url(#clip0_1402_9)">
<path d="M0 16.22C0 25.18 7.26 32.44 16.22 32.44C25.18 32.44 32.44 25.18 32.44 16.22C32.44 7.26 25.17 0 16.22 0C7.27 0 0 7.26 0 16.22Z" fill="white"/>
<path d="M9.06 19.3298V13.1098C9.06 10.8798 10.87 9.06982 13.1 9.06982H19.32C21.55 9.06982 23.36 10.8798 23.36 13.1098V19.3298C23.36 21.5598 21.55 23.3698 19.32 23.3698H13.1C10.87 23.3698 9.06 21.5598 9.06 19.3298Z" fill="#231815"/>
<path d="M13.11 10.1699C12.33 10.1699 11.59 10.4799 11.03 11.0299C10.48 11.5899 10.17 12.3199 10.17 13.1099V19.3299C10.17 20.1199 10.48 20.8499 11.03 21.4099C11.59 21.9599 12.32 22.2699 13.11 22.2699H19.33C20.11 22.2699 20.85 21.9599 21.41 21.4099C21.97 20.8599 22.27 20.1199 22.27 19.3299V13.1099C22.27 12.3199 21.96 11.5899 21.41 11.0299C20.85 10.4799 20.12 10.1699 19.33 10.1699H13.11Z" fill="white"/>
<path d="M19.48 12.3102C19.48 11.9502 19.77 11.6602 20.13 11.6602C20.49 11.6602 20.78 11.9502 20.78 12.3102C20.78 12.6702 20.49 12.9702 20.13 12.9702C19.77 12.9702 19.48 12.6802 19.48 12.3102Z" fill="#231815"/>
<path d="M18.09 18.5302C17.59 19.0302 16.93 19.3102 16.22 19.3102C15.51 19.3102 14.85 19.0302 14.35 18.5302C13.85 18.0302 13.58 17.3702 13.58 16.6602C13.58 15.9502 13.86 15.2902 14.35 14.7902C14.85 14.2902 15.51 14.0102 16.22 14.0102C16.93 14.0102 17.59 14.2902 18.09 14.7902C18.59 15.2902 18.86 15.9502 18.86 16.6602C18.86 17.3702 18.59 18.0302 18.09 18.5302ZM16.22 12.9102C14.15 12.9102 12.47 14.5902 12.47 16.6602C12.47 18.7302 14.15 20.4102 16.22 20.4102C18.29 20.4102 19.97 18.7302 19.97 16.6602C19.97 14.5902 18.29 12.9102 16.22 12.9102Z" fill="#231815"/>
</g>
<defs>
<clipPath id="clip0_1402_9">
<rect width="32.43" height="32.43" fill="white"/>
</clipPath>
</defs>
</svg>
