<svg width="33" height="33" viewBox="0 0 33 33" fill="none" xmlns="http://www.w3.org/2000/svg">
<g clip-path="url(#clip0_1402_27)">
<path d="M0 16.22C0 25.18 7.26 32.44 16.22 32.44C25.18 32.44 32.44 25.18 32.44 16.22C32.44 7.26 25.17 0 16.22 0C7.27 0 0 7.26 0 16.22Z" fill="white"/>
<path d="M21.19 8.77002H11.25V18.71H21.19V8.77002Z" fill="#231815"/>
<path d="M19.06 22.1601L21.19 19.6201H11.24L13.37 22.1601H19.06Z" fill="#231815"/>
<path d="M14.4 23.3901L16.22 25.5501L18.03 23.3901H14.4Z" fill="#231815"/>
<path d="M18.54 11.7598V16.0198H16.98L15.45 13.8798V16.0198H13.9V11.7598H15.45L16.98 13.9898V11.7598H18.54Z" fill="white"/>
</g>
<defs>
<clipPath id="clip0_1402_27">
<rect width="32.43" height="32.43" fill="white"/>
</clipPath>
</defs>
</svg>
