<svg width="60" height="41" viewBox="0 0 60 41" fill="none" xmlns="http://www.w3.org/2000/svg">
<g clip-path="url(#clip0_2_6708)">
<path d="M22.5659 28.5L22.5659 23.2909H18V20.515H29.7224V23.2909H25.0446L25.0446 28.5H22.5659ZM26.2625 19.9666L26.6584 15.3915L18.4605 15.3915V12.7399L29.2491 12.7399L28.6466 19.9709H26.2539L26.2625 19.9666Z" fill="#757575"/>
<path d="M37.2962 19.9024H41.9998V22.2842H30.2773V19.9024H34.9551V18.3602H30.7981V12.5L41.4619 12.5V14.7447L33.2682 14.7447V16.0641H41.5264V18.3602H37.2962V19.9024ZM30.8024 25.5913L30.8024 23.278H41.4662V28.5043L39.0735 28.5043V25.5913H30.7981H30.8024Z" fill="#757575"/>
</g>
<defs>
<clipPath id="clip0_2_6708">
<rect width="24" height="16" fill="white" transform="translate(18 12.5)"/>
</clipPath>
</defs>
</svg>
