<svg width="24" height="16" viewBox="0 0 24 16" fill="none" xmlns="http://www.w3.org/2000/svg">
<g clip-path="url(#clip0_1277_5754)">
<path d="M4.5659 16L4.5659 10.7909H0L0 8.01497L11.7224 8.01497V10.7909H7.04465L7.04465 16L4.5659 16ZM8.26251 7.46664L8.65842 2.89154L0.460463 2.89154L0.460463 0.239868L11.2491 0.239868L10.6466 7.47093L8.2539 7.47093L8.26251 7.46664Z" fill="white"/>
<path d="M19.0188 7.40241L23.7224 7.40241V9.7842L12 9.7842V7.40241L16.6778 7.40241V5.86024L12.5207 5.86024V0L23.1845 0V2.24471L14.9909 2.24471V3.56412L23.2491 3.56412V5.86024L19.0188 5.86024V7.40241ZM12.525 13.0913V10.778L23.1888 10.778V16.0043L20.7961 16.0043V13.0913L12.5207 13.0913H12.525Z" fill="white"/>
</g>
<defs>
<clipPath id="clip0_1277_5754">
<rect width="24" height="16" fill="white"/>
</clipPath>
</defs>
</svg>
