<svg width="24" height="17" viewBox="0 0 24 17" fill="none" xmlns="http://www.w3.org/2000/svg">
<g clip-path="url(#clip0_1279_6190)">
<path d="M4.5659 16.5L4.5659 11.2909H0L0 8.515L11.7224 8.515V11.2909H7.04465L7.04465 16.5H4.5659ZM8.26251 7.96667L8.65842 3.39157L0.460463 3.39157L0.460463 0.739899L11.2491 0.739899L10.6466 7.97096L8.2539 7.97096L8.26251 7.96667Z" fill="#FF8EA8"/>
<path d="M19.2964 7.90241L24 7.90241V10.2842L12.2776 10.2842V7.90241L16.9554 7.90241V6.36024L12.7983 6.36024V0.5L23.4621 0.5V2.74471L15.2684 2.74471V4.06412L23.5266 4.06412V6.36024L19.2964 6.36024V7.90241ZM12.8026 13.5913V11.278L23.4664 11.278V16.5043L21.0737 16.5043V13.5913L12.7983 13.5913H12.8026Z" fill="#FF8EA8"/>
</g>
<defs>
<clipPath id="clip0_1279_6190">
<rect width="24" height="16" fill="white" transform="translate(0 0.5)"/>
</clipPath>
</defs>
</svg>
